<mxfile host="app.diagrams.net" agent="Mozilla/5.0 (X11; Linux x86_64) AppleWebKit/537.36 (KHTML, like Gecko) Chrome/124.0.0.0 Safari/537.36" version="26.0.6">
  <diagram name="Page-1" id="MZ9oU3QtAKZmmdC_BcSL">
    <mxGraphModel dx="2217" dy="759" grid="1" gridSize="10" guides="1" tooltips="1" connect="1" arrows="1" fold="1" page="1" pageScale="1" pageWidth="850" pageHeight="1100" math="0" shadow="0">
      <root>
        <mxCell id="0" />
        <mxCell id="1" parent="0" />
        <mxCell id="Rgs6t-vMNe2nj6Mnv2io-56" value="" style="rounded=1;whiteSpace=wrap;html=1;" vertex="1" parent="1">
          <mxGeometry x="-275" y="340" width="895" height="270" as="geometry" />
        </mxCell>
        <mxCell id="Rgs6t-vMNe2nj6Mnv2io-25" value="" style="rounded=1;whiteSpace=wrap;html=1;" vertex="1" parent="1">
          <mxGeometry x="-275" y="70" width="895" height="250" as="geometry" />
        </mxCell>
        <mxCell id="Rgs6t-vMNe2nj6Mnv2io-1" value="" style="shape=image;html=1;verticalAlign=top;verticalLabelPosition=bottom;labelBackgroundColor=#ffffff;imageAspect=0;aspect=fixed;image=https://cdn4.iconfinder.com/data/icons/essentials-72/24/006_-_Image-128.png" vertex="1" parent="1">
          <mxGeometry x="-200" y="100" width="50" height="50" as="geometry" />
        </mxCell>
        <mxCell id="Rgs6t-vMNe2nj6Mnv2io-2" value="" style="shape=image;html=1;verticalAlign=top;verticalLabelPosition=bottom;labelBackgroundColor=#ffffff;imageAspect=0;aspect=fixed;image=https://cdn4.iconfinder.com/data/icons/essentials-72/24/006_-_Image-128.png" vertex="1" parent="1">
          <mxGeometry x="-190" y="110" width="50" height="50" as="geometry" />
        </mxCell>
        <mxCell id="Rgs6t-vMNe2nj6Mnv2io-3" value="" style="shape=image;html=1;verticalAlign=top;verticalLabelPosition=bottom;labelBackgroundColor=#ffffff;imageAspect=0;aspect=fixed;image=https://cdn4.iconfinder.com/data/icons/essentials-72/24/006_-_Image-128.png" vertex="1" parent="1">
          <mxGeometry x="-180" y="120" width="50" height="50" as="geometry" />
        </mxCell>
        <mxCell id="Rgs6t-vMNe2nj6Mnv2io-5" value="&lt;b&gt;Image Data Collection&lt;/b&gt;" style="text;html=1;align=center;verticalAlign=middle;whiteSpace=wrap;rounded=0;" vertex="1" parent="1">
          <mxGeometry x="-190" y="180" width="70" height="30" as="geometry" />
        </mxCell>
        <mxCell id="Rgs6t-vMNe2nj6Mnv2io-6" value="" style="rounded=0;whiteSpace=wrap;html=1;fillColor=#dae8fc;strokeColor=#6c8ebf;" vertex="1" parent="1">
          <mxGeometry x="-60" y="120" width="120" height="60" as="geometry" />
        </mxCell>
        <mxCell id="Rgs6t-vMNe2nj6Mnv2io-7" value="Data Cleaning" style="text;html=1;align=center;verticalAlign=middle;whiteSpace=wrap;rounded=0;" vertex="1" parent="1">
          <mxGeometry x="-30" y="135" width="60" height="30" as="geometry" />
        </mxCell>
        <mxCell id="Rgs6t-vMNe2nj6Mnv2io-8" value="(Guns, Knife, Fire, etc)" style="text;html=1;align=center;verticalAlign=middle;whiteSpace=wrap;rounded=0;" vertex="1" parent="1">
          <mxGeometry x="-195" y="214" width="80" height="30" as="geometry" />
        </mxCell>
        <mxCell id="Rgs6t-vMNe2nj6Mnv2io-9" value="" style="endArrow=classic;html=1;rounded=0;entryX=0;entryY=0.5;entryDx=0;entryDy=0;" edge="1" parent="1" target="Rgs6t-vMNe2nj6Mnv2io-6">
          <mxGeometry width="50" height="50" relative="1" as="geometry">
            <mxPoint x="-120" y="150" as="sourcePoint" />
            <mxPoint x="320" y="310" as="targetPoint" />
          </mxGeometry>
        </mxCell>
        <mxCell id="Rgs6t-vMNe2nj6Mnv2io-10" value="" style="rounded=0;whiteSpace=wrap;html=1;fillColor=#dae8fc;strokeColor=#6c8ebf;" vertex="1" parent="1">
          <mxGeometry x="100" y="120" width="120" height="60" as="geometry" />
        </mxCell>
        <mxCell id="Rgs6t-vMNe2nj6Mnv2io-11" value="Data Labelling" style="text;html=1;align=center;verticalAlign=middle;whiteSpace=wrap;rounded=0;" vertex="1" parent="1">
          <mxGeometry x="130" y="135" width="60" height="30" as="geometry" />
        </mxCell>
        <mxCell id="Rgs6t-vMNe2nj6Mnv2io-12" value="" style="endArrow=classic;html=1;rounded=0;entryX=0;entryY=0.5;entryDx=0;entryDy=0;exitX=1;exitY=0.5;exitDx=0;exitDy=0;" edge="1" parent="1" source="Rgs6t-vMNe2nj6Mnv2io-6" target="Rgs6t-vMNe2nj6Mnv2io-10">
          <mxGeometry width="50" height="50" relative="1" as="geometry">
            <mxPoint x="280" y="380" as="sourcePoint" />
            <mxPoint x="330" y="330" as="targetPoint" />
          </mxGeometry>
        </mxCell>
        <mxCell id="Rgs6t-vMNe2nj6Mnv2io-13" value="" style="rounded=0;whiteSpace=wrap;html=1;fillColor=#dae8fc;strokeColor=#6c8ebf;" vertex="1" parent="1">
          <mxGeometry x="250" y="120" width="120" height="60" as="geometry" />
        </mxCell>
        <mxCell id="Rgs6t-vMNe2nj6Mnv2io-14" value="Final Dataset" style="text;html=1;align=center;verticalAlign=middle;whiteSpace=wrap;rounded=0;" vertex="1" parent="1">
          <mxGeometry x="280" y="135" width="60" height="30" as="geometry" />
        </mxCell>
        <mxCell id="Rgs6t-vMNe2nj6Mnv2io-15" value="" style="endArrow=classic;html=1;rounded=0;exitX=1;exitY=0.5;exitDx=0;exitDy=0;entryX=0;entryY=0.5;entryDx=0;entryDy=0;" edge="1" parent="1" source="Rgs6t-vMNe2nj6Mnv2io-10" target="Rgs6t-vMNe2nj6Mnv2io-13">
          <mxGeometry width="50" height="50" relative="1" as="geometry">
            <mxPoint x="280" y="380" as="sourcePoint" />
            <mxPoint x="330" y="330" as="targetPoint" />
          </mxGeometry>
        </mxCell>
        <mxCell id="Rgs6t-vMNe2nj6Mnv2io-16" value="" style="rounded=0;whiteSpace=wrap;html=1;fillColor=#dae8fc;strokeColor=#6c8ebf;" vertex="1" parent="1">
          <mxGeometry x="412" y="120" width="120" height="60" as="geometry" />
        </mxCell>
        <mxCell id="Rgs6t-vMNe2nj6Mnv2io-17" value="YOLOv5 model" style="text;html=1;align=center;verticalAlign=middle;whiteSpace=wrap;rounded=0;" vertex="1" parent="1">
          <mxGeometry x="442" y="135" width="60" height="30" as="geometry" />
        </mxCell>
        <mxCell id="Rgs6t-vMNe2nj6Mnv2io-18" value="" style="endArrow=classic;html=1;rounded=0;entryX=0;entryY=0.5;entryDx=0;entryDy=0;exitX=1;exitY=0.5;exitDx=0;exitDy=0;" edge="1" parent="1" source="Rgs6t-vMNe2nj6Mnv2io-13" target="Rgs6t-vMNe2nj6Mnv2io-16">
          <mxGeometry width="50" height="50" relative="1" as="geometry">
            <mxPoint x="280" y="380" as="sourcePoint" />
            <mxPoint x="330" y="330" as="targetPoint" />
          </mxGeometry>
        </mxCell>
        <mxCell id="Rgs6t-vMNe2nj6Mnv2io-19" value="&lt;font style=&quot;font-size: 18px;&quot;&gt;&lt;b style=&quot;&quot;&gt;AI SURVEILLANCE&lt;/b&gt;&lt;/font&gt;" style="text;html=1;align=center;verticalAlign=middle;whiteSpace=wrap;rounded=0;" vertex="1" parent="1">
          <mxGeometry x="65" y="20" width="190" height="30" as="geometry" />
        </mxCell>
        <mxCell id="Rgs6t-vMNe2nj6Mnv2io-20" value="" style="rounded=0;whiteSpace=wrap;html=1;fillColor=#dae8fc;strokeColor=#6c8ebf;" vertex="1" parent="1">
          <mxGeometry x="412" y="214" width="120" height="60" as="geometry" />
        </mxCell>
        <mxCell id="Rgs6t-vMNe2nj6Mnv2io-21" value="Train YOLOv5" style="text;html=1;align=center;verticalAlign=middle;whiteSpace=wrap;rounded=0;" vertex="1" parent="1">
          <mxGeometry x="442" y="229" width="60" height="30" as="geometry" />
        </mxCell>
        <mxCell id="Rgs6t-vMNe2nj6Mnv2io-22" value="" style="endArrow=classic;html=1;rounded=0;exitX=0.5;exitY=1;exitDx=0;exitDy=0;entryX=0.5;entryY=0;entryDx=0;entryDy=0;" edge="1" parent="1" source="Rgs6t-vMNe2nj6Mnv2io-16" target="Rgs6t-vMNe2nj6Mnv2io-20">
          <mxGeometry width="50" height="50" relative="1" as="geometry">
            <mxPoint x="280" y="370" as="sourcePoint" />
            <mxPoint x="330" y="320" as="targetPoint" />
          </mxGeometry>
        </mxCell>
        <mxCell id="Rgs6t-vMNe2nj6Mnv2io-23" value="" style="shape=cylinder3;whiteSpace=wrap;html=1;boundedLbl=1;backgroundOutline=1;size=15;fillColor=#f8cecc;strokeColor=#b85450;" vertex="1" parent="1">
          <mxGeometry x="349" y="370" width="76" height="233" as="geometry" />
        </mxCell>
        <mxCell id="Rgs6t-vMNe2nj6Mnv2io-24" value="Development Phase" style="text;html=1;align=center;verticalAlign=middle;whiteSpace=wrap;rounded=0;" vertex="1" parent="1">
          <mxGeometry x="320" y="80" width="140" height="30" as="geometry" />
        </mxCell>
        <mxCell id="Rgs6t-vMNe2nj6Mnv2io-26" value="Login Credentials" style="text;html=1;align=center;verticalAlign=middle;whiteSpace=wrap;rounded=0;" vertex="1" parent="1">
          <mxGeometry x="-255" y="420" width="60" height="30" as="geometry" />
        </mxCell>
        <mxCell id="Rgs6t-vMNe2nj6Mnv2io-27" value="" style="rounded=0;whiteSpace=wrap;html=1;fillColor=#d5e8d4;strokeColor=#82b366;" vertex="1" parent="1">
          <mxGeometry x="-150" y="405" width="120" height="60" as="geometry" />
        </mxCell>
        <mxCell id="Rgs6t-vMNe2nj6Mnv2io-28" value="User Login" style="text;html=1;align=center;verticalAlign=middle;whiteSpace=wrap;rounded=0;" vertex="1" parent="1">
          <mxGeometry x="-120" y="420" width="60" height="30" as="geometry" />
        </mxCell>
        <mxCell id="Rgs6t-vMNe2nj6Mnv2io-29" value="" style="endArrow=classic;html=1;rounded=0;entryX=0;entryY=0.5;entryDx=0;entryDy=0;exitX=1;exitY=0.5;exitDx=0;exitDy=0;" edge="1" parent="1" source="Rgs6t-vMNe2nj6Mnv2io-26" target="Rgs6t-vMNe2nj6Mnv2io-27">
          <mxGeometry width="50" height="50" relative="1" as="geometry">
            <mxPoint x="-280" y="520" as="sourcePoint" />
            <mxPoint x="330" y="410" as="targetPoint" />
          </mxGeometry>
        </mxCell>
        <mxCell id="Rgs6t-vMNe2nj6Mnv2io-30" value="" style="rounded=0;whiteSpace=wrap;html=1;fillColor=#d5e8d4;strokeColor=#82b366;" vertex="1" parent="1">
          <mxGeometry x="10" y="405" width="120" height="60" as="geometry" />
        </mxCell>
        <mxCell id="Rgs6t-vMNe2nj6Mnv2io-31" value="Home" style="text;html=1;align=center;verticalAlign=middle;whiteSpace=wrap;rounded=0;" vertex="1" parent="1">
          <mxGeometry x="40" y="420" width="60" height="30" as="geometry" />
        </mxCell>
        <mxCell id="Rgs6t-vMNe2nj6Mnv2io-32" value="" style="endArrow=classic;html=1;rounded=0;exitX=1;exitY=0.5;exitDx=0;exitDy=0;entryX=0;entryY=0.5;entryDx=0;entryDy=0;" edge="1" parent="1" source="Rgs6t-vMNe2nj6Mnv2io-27" target="Rgs6t-vMNe2nj6Mnv2io-30">
          <mxGeometry width="50" height="50" relative="1" as="geometry">
            <mxPoint x="280" y="460" as="sourcePoint" />
            <mxPoint x="330" y="410" as="targetPoint" />
          </mxGeometry>
        </mxCell>
        <mxCell id="Rgs6t-vMNe2nj6Mnv2io-33" value="" style="rounded=0;whiteSpace=wrap;html=1;fillColor=#d5e8d4;strokeColor=#82b366;" vertex="1" parent="1">
          <mxGeometry x="170" y="405" width="120" height="60" as="geometry" />
        </mxCell>
        <mxCell id="Rgs6t-vMNe2nj6Mnv2io-34" value="Webcam Stream" style="text;html=1;align=center;verticalAlign=middle;whiteSpace=wrap;rounded=0;" vertex="1" parent="1">
          <mxGeometry x="200" y="420" width="60" height="30" as="geometry" />
        </mxCell>
        <mxCell id="Rgs6t-vMNe2nj6Mnv2io-35" value="" style="endArrow=classic;html=1;rounded=0;entryX=0;entryY=0.5;entryDx=0;entryDy=0;exitX=1;exitY=0.5;exitDx=0;exitDy=0;" edge="1" parent="1" source="Rgs6t-vMNe2nj6Mnv2io-30" target="Rgs6t-vMNe2nj6Mnv2io-33">
          <mxGeometry width="50" height="50" relative="1" as="geometry">
            <mxPoint x="150" y="540" as="sourcePoint" />
            <mxPoint x="330" y="410" as="targetPoint" />
          </mxGeometry>
        </mxCell>
        <mxCell id="Rgs6t-vMNe2nj6Mnv2io-36" value="" style="rounded=0;whiteSpace=wrap;html=1;fillColor=#d5e8d4;strokeColor=#82b366;" vertex="1" parent="1">
          <mxGeometry x="470" y="405" width="120" height="60" as="geometry" />
        </mxCell>
        <mxCell id="Rgs6t-vMNe2nj6Mnv2io-37" value="Real-time Detection" style="text;html=1;align=center;verticalAlign=middle;whiteSpace=wrap;rounded=0;" vertex="1" parent="1">
          <mxGeometry x="500" y="420" width="60" height="30" as="geometry" />
        </mxCell>
        <mxCell id="Rgs6t-vMNe2nj6Mnv2io-38" value="" style="endArrow=classic;html=1;rounded=0;entryX=0.5;entryY=0;entryDx=0;entryDy=0;entryPerimeter=0;" edge="1" parent="1" target="Rgs6t-vMNe2nj6Mnv2io-23">
          <mxGeometry width="50" height="50" relative="1" as="geometry">
            <mxPoint x="388" y="300" as="sourcePoint" />
            <mxPoint x="330" y="410" as="targetPoint" />
          </mxGeometry>
        </mxCell>
        <mxCell id="Rgs6t-vMNe2nj6Mnv2io-39" value="" style="endArrow=none;html=1;rounded=0;entryX=0.5;entryY=1;entryDx=0;entryDy=0;" edge="1" parent="1" target="Rgs6t-vMNe2nj6Mnv2io-20">
          <mxGeometry width="50" height="50" relative="1" as="geometry">
            <mxPoint x="472" y="300" as="sourcePoint" />
            <mxPoint x="330" y="410" as="targetPoint" />
          </mxGeometry>
        </mxCell>
        <mxCell id="Rgs6t-vMNe2nj6Mnv2io-40" value="" style="endArrow=none;html=1;rounded=0;" edge="1" parent="1">
          <mxGeometry width="50" height="50" relative="1" as="geometry">
            <mxPoint x="389" y="300" as="sourcePoint" />
            <mxPoint x="472" y="299" as="targetPoint" />
          </mxGeometry>
        </mxCell>
        <mxCell id="Rgs6t-vMNe2nj6Mnv2io-41" value="Trained Model" style="text;html=1;align=center;verticalAlign=middle;whiteSpace=wrap;rounded=0;" vertex="1" parent="1">
          <mxGeometry x="352" y="480" width="60" height="30" as="geometry" />
        </mxCell>
        <mxCell id="Rgs6t-vMNe2nj6Mnv2io-42" value="" style="endArrow=classic;html=1;rounded=0;exitX=1;exitY=0.5;exitDx=0;exitDy=0;entryX=0;entryY=0;entryDx=0;entryDy=63.25;entryPerimeter=0;" edge="1" parent="1" source="Rgs6t-vMNe2nj6Mnv2io-33" target="Rgs6t-vMNe2nj6Mnv2io-23">
          <mxGeometry width="50" height="50" relative="1" as="geometry">
            <mxPoint x="280" y="590" as="sourcePoint" />
            <mxPoint x="380" y="590" as="targetPoint" />
          </mxGeometry>
        </mxCell>
        <mxCell id="Rgs6t-vMNe2nj6Mnv2io-43" value="" style="endArrow=classic;html=1;rounded=0;exitX=1;exitY=0;exitDx=0;exitDy=65.75;exitPerimeter=0;entryX=0;entryY=0.5;entryDx=0;entryDy=0;" edge="1" parent="1" source="Rgs6t-vMNe2nj6Mnv2io-23" target="Rgs6t-vMNe2nj6Mnv2io-36">
          <mxGeometry width="50" height="50" relative="1" as="geometry">
            <mxPoint x="280" y="460" as="sourcePoint" />
            <mxPoint x="400" y="550" as="targetPoint" />
          </mxGeometry>
        </mxCell>
        <mxCell id="Rgs6t-vMNe2nj6Mnv2io-44" value="Video Upload" style="text;html=1;align=center;verticalAlign=middle;whiteSpace=wrap;rounded=0;" vertex="1" parent="1">
          <mxGeometry x="-20" y="515" width="60" height="30" as="geometry" />
        </mxCell>
        <mxCell id="Rgs6t-vMNe2nj6Mnv2io-45" value="" style="rounded=0;whiteSpace=wrap;html=1;fillColor=#d5e8d4;strokeColor=#82b366;" vertex="1" parent="1">
          <mxGeometry x="60" y="500" width="120" height="60" as="geometry" />
        </mxCell>
        <mxCell id="Rgs6t-vMNe2nj6Mnv2io-46" value="Search Module" style="text;html=1;align=center;verticalAlign=middle;whiteSpace=wrap;rounded=0;" vertex="1" parent="1">
          <mxGeometry x="90" y="515" width="60" height="30" as="geometry" />
        </mxCell>
        <mxCell id="Rgs6t-vMNe2nj6Mnv2io-47" value="" style="endArrow=classic;html=1;rounded=0;entryX=0;entryY=0.5;entryDx=0;entryDy=0;" edge="1" parent="1" target="Rgs6t-vMNe2nj6Mnv2io-45">
          <mxGeometry width="50" height="50" relative="1" as="geometry">
            <mxPoint x="40" y="530" as="sourcePoint" />
            <mxPoint x="250" y="460" as="targetPoint" />
          </mxGeometry>
        </mxCell>
        <mxCell id="Rgs6t-vMNe2nj6Mnv2io-48" value="" style="rounded=0;whiteSpace=wrap;html=1;fillColor=#d5e8d4;strokeColor=#82b366;" vertex="1" parent="1">
          <mxGeometry x="200" y="500" width="110" height="60" as="geometry" />
        </mxCell>
        <mxCell id="Rgs6t-vMNe2nj6Mnv2io-49" value="Choose Object" style="text;html=1;align=center;verticalAlign=middle;whiteSpace=wrap;rounded=0;" vertex="1" parent="1">
          <mxGeometry x="230" y="515" width="60" height="30" as="geometry" />
        </mxCell>
        <mxCell id="Rgs6t-vMNe2nj6Mnv2io-50" value="" style="endArrow=classic;html=1;rounded=0;exitX=1;exitY=0.5;exitDx=0;exitDy=0;entryX=0;entryY=0.5;entryDx=0;entryDy=0;" edge="1" parent="1" source="Rgs6t-vMNe2nj6Mnv2io-45" target="Rgs6t-vMNe2nj6Mnv2io-48">
          <mxGeometry width="50" height="50" relative="1" as="geometry">
            <mxPoint x="200" y="510" as="sourcePoint" />
            <mxPoint x="250" y="460" as="targetPoint" />
          </mxGeometry>
        </mxCell>
        <mxCell id="Rgs6t-vMNe2nj6Mnv2io-52" value="" style="endArrow=classic;html=1;rounded=0;exitX=1;exitY=0.5;exitDx=0;exitDy=0;entryX=-0.039;entryY=0.691;entryDx=0;entryDy=0;entryPerimeter=0;" edge="1" parent="1" source="Rgs6t-vMNe2nj6Mnv2io-48">
          <mxGeometry width="50" height="50" relative="1" as="geometry">
            <mxPoint x="314" y="530" as="sourcePoint" />
            <mxPoint x="350.03600000000006" y="531.0029999999999" as="targetPoint" />
          </mxGeometry>
        </mxCell>
        <mxCell id="Rgs6t-vMNe2nj6Mnv2io-53" value="" style="rounded=0;whiteSpace=wrap;html=1;fillColor=#d5e8d4;strokeColor=#82b366;" vertex="1" parent="1">
          <mxGeometry x="470" y="500" width="120" height="60" as="geometry" />
        </mxCell>
        <mxCell id="Rgs6t-vMNe2nj6Mnv2io-54" value="Result and Report" style="text;html=1;align=center;verticalAlign=middle;whiteSpace=wrap;rounded=0;" vertex="1" parent="1">
          <mxGeometry x="500" y="515" width="60" height="30" as="geometry" />
        </mxCell>
        <mxCell id="Rgs6t-vMNe2nj6Mnv2io-55" value="" style="endArrow=classic;html=1;rounded=0;entryX=0;entryY=0.5;entryDx=0;entryDy=0;exitX=1;exitY=0.691;exitDx=0;exitDy=0;exitPerimeter=0;" edge="1" parent="1" source="Rgs6t-vMNe2nj6Mnv2io-23" target="Rgs6t-vMNe2nj6Mnv2io-53">
          <mxGeometry width="50" height="50" relative="1" as="geometry">
            <mxPoint x="200" y="510" as="sourcePoint" />
            <mxPoint x="250" y="460" as="targetPoint" />
          </mxGeometry>
        </mxCell>
        <mxCell id="Rgs6t-vMNe2nj6Mnv2io-57" value="Deployement Phase" style="text;html=1;align=center;verticalAlign=middle;whiteSpace=wrap;rounded=0;" vertex="1" parent="1">
          <mxGeometry x="60" y="350" width="140" height="30" as="geometry" />
        </mxCell>
      </root>
    </mxGraphModel>
  </diagram>
</mxfile>
